<svg width="631" height="631" viewBox="0 0 631 631" fill="none" xmlns="http://www.w3.org/2000/svg">
<rect width="631" height="631" rx="50" fill="#0D3934"/>
<path d="M365.282 284.207L360.565 300.408H265.409L270.126 284.207H365.282ZM322.626 397L268.383 333.631L268.28 320.916H293.3C300.546 320.916 306.527 319.72 311.244 317.327C316.029 314.866 319.618 311.551 322.011 307.381C324.403 303.211 325.6 298.528 325.6 293.333C325.6 287.522 324.472 282.43 322.216 278.055C319.96 273.611 316.405 270.159 311.552 267.698C306.767 265.169 300.478 263.904 292.685 263.904H265.614L270.434 247.703H292.685C304.579 247.703 314.389 249.515 322.113 253.138C329.906 256.692 335.717 261.888 339.545 268.724C343.373 275.56 345.287 283.831 345.287 293.538C345.287 301.878 343.681 309.363 340.468 315.994C337.323 322.557 332.094 327.718 324.779 331.478C317.533 335.237 307.758 337.117 295.453 337.117L345.902 395.77V397H322.626ZM365.282 247.703L360.565 263.904H283.866L288.583 247.703H365.282Z" fill="#F9F9F9"/>
<circle cx="316.5" cy="316.5" r="135.5" stroke="#F9F9F9" stroke-width="20"/>
<circle cx="316" cy="316" r="203" stroke="#F9F9F9" stroke-width="20"/>
<line x1="318" y1="111" x2="318" y2="176" stroke="#F9F9F9" stroke-width="20"/>
<line x1="450" y1="314" x2="515" y2="314" stroke="#F9F9F9" stroke-width="20"/>
<line x1="419.316" y1="417.183" x2="463.627" y2="464.739" stroke="#F9F9F9" stroke-width="20"/>
</svg>
